/* XPM */
static char *outerspace[] = {
/* columns rows colors chars-per-pixel */
"8 15 4 1 ",
"  c None",
". c None",
"X c #00FF00",
"c c #008800",
/* pixels */
"........",
".....X..",
"........",
"........",
"..c.....",
"........",
"........",
".......X",
"........",
"........",
"...X....",
"........",
"......c.",
"........",
"........",
};
